<?xml version="1.0" encoding="utf-8"?>
<!-- Generator: Adobe Illustrator 16.0.0, SVG Export Plug-In . SVG Version: 6.00 Build 0)  -->
<!DOCTYPE svg PUBLIC "-//W3C//DTD SVG 1.1//EN" "http://www.w3.org/Graphics/SVG/1.1/DTD/svg11.dtd">
<svg version="1.1" id="Layer_1" xmlns="http://www.w3.org/2000/svg" xmlns:xlink="http://www.w3.org/1999/xlink" x="0px" y="0px"
	 width="201.086px" height="201.067px" viewBox="0 0 201.086 201.067" enable-background="new 0 0 201.086 201.067"
	 xml:space="preserve">
<g>
	<g>
		<path fill-rule="evenodd" clip-rule="evenodd" fill="#FEFEFE" d="M101.008,201c-32.146,0-64.292-0.038-96.439,0.067
			c-2.784,0.009-3.673-0.313-3.667-3.494c0.13-64.46,0.123-128.92,0.014-193.379C0.911,1.308,1.644,0.928,4.302,0.931
			C68.762,1.02,133.222,1.019,197.682,0.934c2.623-0.004,3.41,0.321,3.404,3.244c-0.112,64.626-0.105,129.252-0.014,193.878
			c0.004,2.632-0.758,3.004-3.125,2.998C165.635,200.974,133.322,201,101.008,201z"/>
		<path fill-rule="evenodd" clip-rule="evenodd" fill="#FCFDFC" d="M172.001,91.055c-0.332,0.315-0.663,0.63-0.995,0.944
			c-0.165,0.023-0.431,0.124-0.48,0.059c-6.877-8.874-17.622-10.693-27.084-14.839c-2.745-1.203-5.601-2.156-8.136-3.81
			c-2.722-1.775-5.437-3.719-5.034-7.413c0.454-4.176,2.938-7.209,6.94-8.348c6.604-1.878,13.19-1.371,19.554,1.316
			c1.688,0.713,3.264,1.677,4.961,2.369c1.201,0.49,2.627,1.278,3.442-0.468c0.72-1.541,0.216-2.983-1.161-3.956
			c-1.52-1.073-3.33-1.544-5.107-1.961c-9.729-2.281-19.506-2.369-29.225-0.101c-4.416,1.03-8.539,2.925-11.5,6.614
			c-3.598,4.483-3.5,8.11,0.225,12.529c1.16,1.376,2.772,2.477,2.844,4.546c-0.378,0.884-1.129,1.282-1.98,1.568
			c-9.436,0.615-18.867,0.937-28.28-0.167c-3.153-2.47-1.58-4.256,1.018-5.542c2.555-1.265,5.393-1.614,8.249-1.729
			c1.766-0.071,3.594,0.159,5.965-1.058c-6.48-0.492-12.278-0.357-18.054-0.229c-5.833,0.131-10.952-1.963-16.206-4.661
			c2.28,4.163,5.66,5.781,9.938,6.008c1.998,0.106,4.412,0.377,4.993,2.569c0.583,2.205-1.385,3.514-3.115,4.617
			c-6.349,2.048-12.918,2.032-19.469,2.117c-1.502-0.833-3.114-2.341-4.044,0.645c-1.481,0.908-3.594,0.648-5.417,3.486
			c27.216-1.366,53.566-3.238,79.859-0.139c1.682,1.754,2.287-0.954,3.567-0.878c5.39,0.131,9.988,2.551,14.185,5.523
			c4,2.834,3.645,8.641-0.428,11.513c-2.923,2.063-6.287,3.016-9.869,3.134c-8.951,0.296-17.118-1.985-24.41-7.298
			c-6.262-4.563-7.14-4.291-13.644-0.047c-13.622,8.89-27.983,10.429-42.581,2.646c-13.45-7.169-15.653-21.922-5.316-33.179
			c6.295-6.854,14.174-10.347,23.422-10.775c8.4-0.389,16.668-0.01,24.271,4.283c1.342,0.757,3.207,1.992,4.193-0.4
			c0.904-2.195-0.051-3.875-2.266-4.782c-3.621-1.483-7.513-1.514-11.299-1.887c-13.743-1.355-27.323-0.726-40.254,4.742
			c-5.402,2.284-10.297,5.371-13.954,10.197c-3.236,4.272-5.167,8.869-4.99,14.311c0.063,1.949,0.33,4.044-1.245,5.679
			c-0.303,0.398-0.605,0.798-0.908,1.196c-1.294-0.745-2.246-1.854-3.174-2.988c-1.449-1.75-2.897-3.501-4.261-5.148
			c0.437-1.113,1.232-0.927,1.791-0.837c4.419,0.704,6.304-1.117,5.454-5.505c-1.908-9.852,3.891-15.115,11.507-19.127
			c1.711-0.901,2.552-1.673,2.552-3.639c0-3.522,1.974-4.821,5.243-3.747c2.135,0.702,4.064,0.726,6.257,0.125
			c4.357-1.194,8.751-1.676,13.084,0.523c1.462,0.743,3.403,0.76,4.866-0.051c3.244-1.798,5.963-1.699,9.252,0.362
			c2.724,1.707,5.631-1.37,8.836-1.21c2.697,0.135,5.473,0.049,8.243,0.145c7.559,0.262,15.136-0.021,22.701,0.121
			c10.775,0.201,21.551,0.929,32.316,0.751c5.18-0.086,10.295-1.848,15.622-0.813c4.284,0.832,5.493,2.938,3.036,6.452
			c-0.932,1.334-1.553,2.131-0.744,3.889c1.939,4.215-0.114,6.955-4.745,6.629c-0.972-0.069-1.969-0.818-2.867-0.683
			c-2.943,0.447-6.967-0.906-7.181,4.373c-0.373,9.266,0.689,11.288,6.183,11.414c3.294,0.075,6.32-1.709,9.826-0.669
			c3.411,1.013,5.067,1.72,1.517,4.693c-0.994,0.832-1.689,2.021-2.521,3.046c-1.604,1.173-3.031,1.195-4.298-0.367
			C171.367,88.695,173.043,89.796,172.001,91.055z"/>
		<path fill-rule="evenodd" clip-rule="evenodd" fill="#216092" d="M120.916,78.197c-12.49-8.42-5.875-19.504,3.758-23.056
			c13.154-4.852,26.443-3.98,39.653,0.003c4.106,1.238,3.383,5.042,2.516,7.388c-0.871,2.355-3.71,1.093-5.579,0.014
			c-5.135-2.964-10.592-4.739-16.555-4.867c-2.693-0.058-5.316,0.209-7.79,1.36c-3.055,1.423-5.395,3.65-5.61,7.074
			c-0.205,3.252,2.334,5.102,4.961,6.248c7.758,3.387,15.584,6.622,23.438,9.781c4.95,1.991,9.03,4.852,11.298,9.856
			c-0.104,7.56-3.004,12.288-10.27,14.73c-15.523,5.218-31.065,4.274-46.518-0.729c-1.822-0.59-2.107-2.482-3.67-3.24
			c-0.67,1.305-1.068,2.682-2.775,3.127c-18.83,4.912-37.612,6.643-56.333-0.511c-8.115-3.101-14.422-8.06-17.356-16.569
			c-0.637-16.112,4.477-24.854,19.324-31.265c17.341-7.487,35.351-6.604,53.423-3.109c1.75,0.339,3.214,1.053,2.985,3.227
			c-0.199,1.894,1.267,4.317-0.726,5.566c-1.709,1.071-3.714,0.145-5.617-0.839C90.23,55.543,76.874,55.8,63.862,62.815
			c-8.375,4.516-13.379,11.794-12.597,21.547c0.778,9.69,7.616,14.878,16.224,17.546c13.907,4.31,26.916,2.448,38.461-6.919
			c3.701-3.003,7.035-2.47,10.641,0.467c9.011,7.341,19.27,10.205,30.773,7.616c3.378-0.761,6.473-2.191,6.818-6.219
			c0.324-3.771-2.215-5.756-5.283-7.033c-3.518-1.464-7.135-2.686-10.709-4.013C131.654,85.037,125.793,82.735,120.916,78.197z"/>
		<path fill-rule="evenodd" clip-rule="evenodd" fill="#3D6688" d="M91.954,137.466c0.086-6.762,5.635-11.968,12.673-11.89
			c7.023,0.078,12.412,5.464,12.276,12.272c-0.132,6.66-5.962,12.216-12.661,12.064C97.442,149.76,91.87,144.115,91.954,137.466z"/>
		<path fill-rule="evenodd" clip-rule="evenodd" fill="#3E6585" d="M46.313,138.577c1.582-1.136,2.975-0.867,4.245-0.742
			c2.034,0.201,5.054-1.226,5.879,0.947c0.913,2.401-0.502,5.181-2.266,7.321c-3.224,3.913-9.734,4.994-14.641,2.465
			c-4.789-2.469-7.101-8.71-5.468-14.762c1.427-5.288,6.435-8.78,12.128-8.316c2.677,0.218,5.277,0.852,7.289,2.84
			c0.683,0.675,1.855,1.515,1.15,2.458c-1.153,1.542-1.919-0.092-2.698-0.753c-3.634-3.083-7.671-3.255-11.552-0.945
			c-4.062,2.418-4.99,6.544-4.175,10.922c0.727,3.907,3.213,6.581,7.128,7.521c3.468,0.831,6.635-0.035,9.072-2.749
			c0.996-1.109,1.954-2.525,1.391-4.07c-0.606-1.664-2.278-0.792-3.496-0.945C49.066,139.613,47.673,140.102,46.313,138.577z"/>
		<path fill-rule="evenodd" clip-rule="evenodd" fill="#3D6D93" d="M130.47,126.105c1.149,2.832,0.394,5.921,0.544,8.877
			c0.118,2.319-0.041,4.651,0.057,6.972c0.16,3.81,2.32,5.764,6.035,5.852c3.725,0.089,6.037-1.699,6.16-5.588
			c0.144-4.479,0.074-8.963,0.193-13.442c0.025-1.001-0.43-2.676,1.401-2.53c1.355,0.106,1.013,1.515,0.983,2.409
			c-0.168,4.963,0.488,9.944-0.448,14.895c-0.924,4.886-4.273,6.446-8.685,6.375c-4.588-0.073-7.514-2.769-7.717-7.402
			c-0.238-5.449-0.055-10.916-0.055-16.376C129.449,126.132,129.959,126.119,130.47,126.105z"/>
		<path fill-rule="evenodd" clip-rule="evenodd" fill="#3B6789" d="M68.63,148.844c0-6.94,0.013-13.88-0.007-20.82
			c-0.007-2.343,1.655-2.043,3.125-2.05c3.424-0.015,7.05,0.086,8.198,4.079c1.158,4.027-0.017,7.291-5.236,8.386
			c2.581,3.495,4.992,6.762,7.403,10.028c-5.423-1.376-6.557-7.076-10.975-10.27c-0.218,3.884-0.41,7.304-0.603,10.723
			C69.9,148.895,69.265,148.869,68.63,148.844z"/>
		<path fill-rule="evenodd" clip-rule="evenodd" fill="#2B6595" d="M169.966,128.959c2.169,5.795,0.723,9.404-4.722,9.682
			c-4.039,0.206-4.559,1.817-4.282,5.077c0.146,1.714,0.389,3.561-0.453,5.198c-0.487,0.017-0.974,0.033-1.462,0.05
			c0-6.66,0-13.319,0-19.979c0.615-0.563,1.298-0.571,2.02-0.247c0.475,0.476,0.687,1.082,0.926,1.7
			c0.641,1.661-0.634,4.555,2.282,4.731c2.778,0.169,3.071-2.462,3.655-4.502C168.322,129.758,168.642,128.755,169.966,128.959z"/>
		<path fill-rule="evenodd" clip-rule="evenodd" fill="#3A6D97" d="M30.002,87.015c2.27-0.291,3.05,1,3.174,2.988
			c-8.182,1.784-16.363,3.569-24.544,5.354C15.222,90.921,22.932,89.854,30.002,87.015z"/>
		<path fill-rule="evenodd" clip-rule="evenodd" fill="#3A678B" d="M172.001,91.055c-0.491-1.165-0.982-2.33-1.571-3.729
			c1.943,0.275,3.742,0.53,5.539,0.784c5.859,2.023,11.717,4.046,17.575,6.068c-0.087,0.309-0.173,0.617-0.259,0.925
			C186.19,93.754,179.096,92.404,172.001,91.055z"/>
		<path fill-rule="evenodd" clip-rule="evenodd" fill="#46657F" d="M169.966,128.959c-0.843,0.513-0.957,1.37-1.056,2.233
			c-2.623-0.973-5.135-2.346-8.059-2.218c-0.602,0.004-1.203,0.008-1.805,0.012c-0.282-1.545-0.502-3.123,1.826-2.994
			C164.152,126.174,167.904,125.012,169.966,128.959z"/>
		<path fill-rule="evenodd" clip-rule="evenodd" fill="#226193" d="M89.999,78.844c9.896,0.117,19.792,0.234,29.689,0.352
			c5.688,1.881,11.297,3.932,16.171,7.557c-9.474-0.25-18.947-0.602-28.423-0.728c-16.314-0.217-32.61,0.137-48.87,1.706
			c-2.096,0.203-5.376,1.782-5.576-2.576c-0.178-3.878,2.988-2.629,4.958-3.188c1.105-0.313,2.233-0.543,3.351-0.811
			c0.5-0.644,1.06-0.767,1.701-0.198c6.998-0.641,13.996-1.282,20.993-1.923C85.957,77.771,87.945,77.296,89.999,78.844z"/>
		<path fill-rule="evenodd" clip-rule="evenodd" fill="#FEFEFE" d="M89.999,78.844c-2.002,0.063-4.004,0.127-6.006,0.191
			c0.766-1.064,1.531-2.128,2.388-3.319c-1.343-1.884-3.378-1.935-5.273-1.677c-6.03,0.822-8.149-4.994-12.393-7.186
			c-0.72-0.372-0.285-1.605,0.796-1.708c0.967-0.092,2.217-0.271,2.902,0.212c9.374,6.602,20.076,4.275,30.364,4.607
			c2.371,0.076,4.59,0.379,7.01,1.855c-2.631,1.95-5.438,2.352-8.305,2.138c-2.89-0.215-5.577,0.611-8.314,1.18
			C91.258,75.535,89.738,76.484,89.999,78.844z"/>
		<path fill-rule="evenodd" clip-rule="evenodd" fill="#CCE7F4" d="M135.858,86.752c-5.454-2.382-11.236-4.061-16.171-7.557
			c0.409-0.332,0.818-0.665,1.229-0.998c5.758,2.537,11.518,5.074,17.275,7.61C137.26,85.741,137.334,88.163,135.858,86.752z"/>
		<path fill-rule="evenodd" clip-rule="evenodd" fill="#FEFEFE" d="M150.47,66.762c-1.892-0.635-2.335-1.26-2.327-2.153
			c0.008-0.968,0.549-1.537,1.519-1.455c1.053,0.09,1.958,0.532,1.622,1.821C151.078,65.76,150.605,66.476,150.47,66.762z"/>
		<path fill-rule="evenodd" clip-rule="evenodd" fill="#FEFEFE" d="M63,80.958c-0.567,0.066-1.134,0.132-1.701,0.197
			c-0.879-0.255-2.101-0.255-1.819-1.64c0.166-0.814,0.907-1.341,1.79-1.337C63.263,78.188,62.874,79.748,63,80.958z"/>
		<path fill-rule="evenodd" clip-rule="evenodd" fill="#FBFDFD" d="M114.361,138.183c-0.295,5.731-4.982,10.017-10.579,9.672
			c-5.216-0.32-9.608-5.154-9.47-10.42c0.148-5.634,4.814-10.006,10.479-9.816C110.513,127.81,114.66,132.388,114.361,138.183z"/>
		<path fill-rule="evenodd" clip-rule="evenodd" fill="#F3FBFB" d="M70.86,132.03c0.068-2.014-0.648-4.297,2.696-4.027
			c2.715,0.219,4.344,1.309,4.416,4.165c0.076,2.986-1.684,3.902-4.369,4.073C69.821,136.482,71.152,133.715,70.86,132.03z"/>
		<path fill-rule="evenodd" clip-rule="evenodd" fill="#F2F7F7" d="M160.852,128.975c3.498-2.211,6.057-1.01,8.059,2.218
			c-0.133,1.285,0.031,2.619-0.794,3.772c-1.448,2.023-3.622,2.224-5.713,1.907c-2.536-0.384-1.118-2.599-1.376-3.992
			C160.793,131.61,160.896,130.278,160.852,128.975z"/>
	</g>
</g>
</svg>
