<?xml version="1.0" encoding="utf-8"?>
<!-- Generator: Adobe Illustrator 16.0.0, SVG Export Plug-In . SVG Version: 6.00 Build 0)  -->
<!DOCTYPE svg PUBLIC "-//W3C//DTD SVG 1.1//EN" "http://www.w3.org/Graphics/SVG/1.1/DTD/svg11.dtd">
<svg version="1.1" id="Layer_1" xmlns="http://www.w3.org/2000/svg" xmlns:xlink="http://www.w3.org/1999/xlink" x="0px" y="0px"
	 width="529.646px" height="525.161px" viewBox="0 0 529.646 525.161" enable-background="new 0 0 529.646 525.161"
	 xml:space="preserve">
<rect fill="#F9F9FA" width="529.646" height="525.161"/>
<g>
	<path fill-rule="evenodd" clip-rule="evenodd" fill="#080B0B" d="M0.53,257.811c23.583-8.019,47.176-16.008,70.94-23.479
		c30.578-9.613,61.276-18.81,92.394-26.55c26.982-6.712,54.25-11.858,81.872-15.074c16.584-1.93,33.206-3.185,49.925-3.364
		c14.032-0.15,26.967,3.11,39.267,9.849c13.772,7.546,27.13,15.783,40.643,23.756c10.187,6.011,20.958,8.967,32.72,8.864
		c10.16-0.089,20.329-0.184,30.482,0.13c26.595,0.82,52.64,4.866,77.709,14.131c4.459,1.648,8.793,3.604,13.022,6.896
		c-3.806,1.306-7.279,2.364-10.646,3.694c-2.756,1.088-4.91,1.015-7.736-0.599c-8.034-4.588-17.087-6.462-26.073-8.301
		c-25.461-5.209-51.232-6.738-77.159-6.518c-9.443,0.08-18.893,0.028-28.216-1.913c-5.11-1.063-9.551-3.595-13.958-6.171
		c-13.028-7.618-25.228-16.545-38.17-24.3c-7.711-4.621-15.396-9.323-24.23-11.599c-4.303-1.109-8.728-1.307-13.133-1.382
		c-22.393-0.383-44.627,1.724-66.814,4.457c-43.437,5.351-85.627,16.315-127.54,28.484c-32.049,9.305-63.755,19.689-95.297,30.58
		C0.53,258.871,0.53,258.341,0.53,257.811z"/>
	<path fill-rule="evenodd" clip-rule="evenodd" fill="#1479B7" d="M458.486,329.381c-6.272,0-12.545,0.011-18.817-0.002
		c-6.901-0.014-10.24-4.051-8.317-10.705c2.523-8.728,5.476-17.332,8.268-25.981c1.871-5.793,3.757-11.583,5.686-17.357
		c2.627-7.864,8.493-12.103,16.713-12.109c12.103-0.009,24.206-0.013,36.31,0.002c7.537,0.01,11.057,4.701,8.772,11.836
		c-4.492,14.036-9.033,28.057-13.626,42.061c-2.541,7.744-8.891,12.256-16.966,12.257
		C470.5,329.382,464.493,329.381,458.486,329.381z"/>
	<path fill-rule="evenodd" clip-rule="evenodd" fill="#080B0B" d="M282.081,306.105c-5.389,0.001-10.777-0.057-16.164,0.037
		c-1.609,0.027-1.76-0.497-1.323-1.83c2.498-7.616,4.983-15.238,7.403-22.881c0.431-1.36,1.306-1.374,2.425-1.371
		c8.126,0.026,16.253,0.023,24.379,0.009c2.149-0.005,4.954-3.789,4.252-5.789c-0.435-1.236-1.621-0.834-2.53-0.837
		c-7.773-0.023-15.547-0.082-23.318,0.034c-2.153,0.032-2.596-0.434-1.748-2.455c0.985-2.349,0.998-5.745,2.684-6.981
		c1.684-1.237,4.914-0.406,7.467-0.412c8.037-0.021,16.075-0.01,24.113-0.007c3.589,0.001,5.652,2.074,4.641,5.488
		c-1.412,4.765-2.109,9.876-5.355,13.941c-0.54,0.677-0.618,1.168-0.158,1.86c1.209,1.815,0.82,3.663,0.151,5.565
		c-1.021,2.909-1.914,5.863-2.905,8.783c-1.576,4.64-4.636,6.842-9.438,6.844C291.797,306.105,286.939,306.104,282.081,306.105z"/>
	<path fill-rule="evenodd" clip-rule="evenodd" fill="#090B0B" d="M191.031,263.621c-0.997,3.06-1.987,5.782-2.751,8.567
		c-0.425,1.548-1.508,1.229-2.5,1.231c-8.214,0.02-16.429,0.011-24.643,0.012c-2.841,0-5.371,2.723-5.07,5.521
		c0.14,1.301,1.224,1.009,2.046,1.011c6.801,0.015,13.603-0.001,20.404,0.012c4.581,0.009,6.196,1.9,4.997,6.319
		c-1.268,4.672-2.754,9.294-4.361,13.862c-1.322,3.757-4.774,5.946-8.762,5.947c-10.158,0.003-20.316-0.028-30.473,0.031
		c-1.709,0.01-2.456-0.18-1.648-2.119c1.009-2.421,1.112-5.669,2.822-7.22c1.668-1.513,4.901-0.407,7.443-0.433
		c6.447-0.063,12.896-0.014,19.344-0.024c2.435-0.004,5.185-3.554,4.498-5.825c-0.367-1.216-1.452-0.771-2.251-0.773
		c-6.625-0.032-13.249-0.013-19.874-0.021c-4.729-0.006-6.325-1.893-5.067-6.477c1.28-4.666,2.579-9.377,4.467-13.813
		c1.487-3.493,4.17-5.923,8.579-5.855c9.979,0.153,19.962,0.048,29.943,0.048C189.03,263.621,189.888,263.621,191.031,263.621z"/>
	<path fill-rule="evenodd" clip-rule="evenodd" fill="#080B0B" d="M392.568,288.892c2.382-7.321,4.92-14.52,7.011-21.846
		c0.817-2.86,2.09-3.825,4.913-3.468c1.82,0.23,3.693,0.043,5.881,0.043c-1.337,4.204-2.582,8.199-3.877,12.177
		c-3.054,9.384-6.183,18.743-9.151,28.153c-0.517,1.641-1.173,2.332-2.909,2.179c-2.71-0.239-6.01,1.008-7.997-0.494
		c-1.851-1.398-2.365-4.584-3.434-6.999c-2.599-5.877-5.176-11.765-7.999-18.186c-1.374,4.146-2.613,7.826-3.813,11.52
		c-1.308,4.023-2.613,8.049-3.849,12.095c-0.434,1.418-1.023,2.244-2.727,2.078c-1.837-0.179-3.713-0.142-5.558-0.011
		c-1.821,0.129-2.042-0.436-1.494-2.09c3.599-10.871,7.093-21.776,10.657-32.659c0.842-2.569,0.866-6.098,2.911-7.383
		c1.914-1.204,5.14-0.211,7.769-0.424c1.815-0.146,2.643,0.534,3.318,2.161c2.902,7,5.93,13.95,8.939,20.906
		C391.489,287.405,391.553,288.363,392.568,288.892z"/>
	<path fill-rule="evenodd" clip-rule="evenodd" fill="#1479B7" d="M412.429,278.516c1.61-4.929,3.128-9.521,4.599-14.127
		c0.299-0.935,0.872-1.182,1.775-1.179c6.71,0.021,13.422,0.038,20.132-0.002c2.553-0.015,1.285,1.533,0.986,2.459
		c-4.225,13.093-8.502,26.169-12.766,39.25c-2.434,7.463-4.917,14.91-7.257,22.402c-0.518,1.655-1.301,2.172-2.988,2.103
		c-3.262-0.136-6.54-0.182-9.796,0.008c-2.349,0.137-2.825-0.404-2.053-2.707c3.669-10.955,7.188-21.961,10.759-32.949
		c1.418-4.362,2.757-8.752,4.284-13.076c0.654-1.854,0.174-2.328-1.663-2.207C416.6,278.61,414.744,278.516,412.429,278.516z"/>
	<path fill-rule="evenodd" clip-rule="evenodd" fill="#0C0E0E" d="M146.049,263.618c-1.03,3.135-2.002,5.774-2.746,8.478
		c-0.406,1.475-1.388,1.338-2.443,1.338c-6.797-0.001-13.597,0.113-20.389-0.06c-2.497-0.063-4.01,0.467-4.366,3.146
		c-0.146,1.104-0.646,2.161-1.083,3.553c3.97,0,7.727,0.048,11.481-0.022c1.535-0.029,2.09,0.243,1.415,1.905
		c-1.019,2.51-1.136,5.873-2.904,7.451c-1.724,1.537-5.072,0.322-7.703,0.46c-0.264,0.014-0.529,0.002-0.794,0.002
		c-4.971,0-4.897,0.021-6.311,4.759c-0.482,1.616,0.069,1.743,1.42,1.734c6.973-0.045,13.95,0.104,20.919-0.086
		c2.67-0.072,2.93,0.692,2.002,2.892c-0.918,2.176-0.979,5.198-2.54,6.489c-1.713,1.417-4.744,0.416-7.197,0.43
		c-8.563,0.05-17.125-0.031-25.687,0.059c-1.908,0.021-2.171-0.44-1.589-2.2c4.232-12.787,8.38-25.603,12.542-38.412
		c0.33-1.015,0.48-1.954,1.986-1.946C123.264,263.645,134.467,263.618,146.049,263.618z"/>
	<path fill-rule="evenodd" clip-rule="evenodd" fill="#080B0B" d="M272.46,263.62c-0.975,3.021-1.914,5.763-2.733,8.539
		c-0.42,1.424-1.452,1.277-2.514,1.276c-6.802-0.007-13.609,0.141-20.404-0.077c-2.625-0.085-3.901,0.709-4.285,3.254
		c-0.167,1.104-0.625,2.162-1.017,3.463c4.015,0,7.719,0.076,11.417-0.034c1.708-0.05,1.958,0.533,1.438,1.986
		c-0.744,2.072-1.466,4.158-2.057,6.278c-0.356,1.278-1.07,1.61-2.303,1.584c-3.09-0.068-6.19,0.107-9.272-0.071
		c-1.941-0.111-2.778,0.541-3.289,2.407c-1.132,4.145-1.233,4.116,2.949,4.116c7.051,0,14.103,0,21.438,0
		c-0.998,3.126-1.906,5.957-2.803,8.792c-0.312,0.984-1.081,0.979-1.907,0.979c-10.689-0.01-21.378-0.028-32.066,0.021
		c-1.489,0.007-1.593-0.543-1.204-1.731c4.274-13.061,8.526-26.129,12.795-39.191c0.264-0.809,0.417-1.624,1.676-1.619
		C249.605,263.64,260.893,263.62,272.46,263.62z"/>
	<path fill-rule="evenodd" clip-rule="evenodd" fill="#080B0B" d="M307.29,306.104c4.059-5.443,7.777-10.442,11.508-15.433
		c6.125-8.194,12.313-16.343,18.341-24.607c1.336-1.831,2.695-2.565,4.992-2.505c6.695,0.177,6.627,0.071,7.246,6.736
		c1.042,11.239,2.119,22.477,3.345,33.697c0.216,1.978-0.414,2.215-2.042,2.136c-2.113-0.102-4.238-0.088-6.353,0
		c-1.328,0.056-1.773-0.367-1.947-1.746c-0.525-4.145-0.612-4.133-4.853-4.133c-4.502,0-9.004,0.037-13.505-0.025
		c-1.239-0.018-2.265,0.125-2.882,1.324c-2.018,3.927-5.202,5.352-9.52,4.588C310.426,305.925,309.161,306.104,307.29,306.104z"/>
	<path fill-rule="evenodd" clip-rule="evenodd" fill="#090B0B" d="M231.508,263.621c0,0.471,0.049,0.661-0.007,0.811
		c-1.091,2.873-0.99,6.771-3.207,8.468c-2.237,1.712-5.974,0.647-9.013,0.448c-2.888-0.189-4.077,0.822-4.9,3.547
		c-2.75,9.1-5.815,18.104-8.697,27.165c-0.453,1.423-0.998,2.246-2.699,2.084c-1.836-0.176-3.71-0.145-5.554-0.009
		c-1.871,0.137-1.985-0.457-1.439-2.091c3.067-9.182,6.013-18.404,9.018-27.606c0.984-3.014,1.008-3.006-2.303-3.007
		c-2.471-0.001-4.943-0.056-7.411,0.022c-1.466,0.047-2.178-0.11-1.474-1.863c1.012-2.52,1.103-5.881,2.86-7.495
		c1.711-1.57,5.061-0.436,7.687-0.452C213.364,263.585,222.36,263.621,231.508,263.621z"/>
	<path fill-rule="evenodd" clip-rule="evenodd" fill="#F4A022" d="M254.9,241.72c1.766,0,3.547-0.132,5.292,0.061
		c0.783,0.086,2.537-0.992,2.285,0.913c-0.174,1.321-0.009,3.406-2.475,3.349c-3.001-0.068-6.005-0.016-9.008-0.014
		c-0.53,0-1.059,0.006-1.589,0.016c-1.371,0.026-1.54,1.178-1.579,2.058c-0.049,1.088,1.017,0.706,1.625,0.717
		c2.561,0.047,5.123-0.014,7.683,0.033c2.361,0.043,3.01,0.857,2.417,3.157c-0.461,1.791-1.058,3.553-1.696,5.291
		c-0.741,2.018-2.129,3.115-4.417,3.065c-3.708-0.081-7.421,0.052-11.125-0.081c-0.773-0.028-2.562,0.949-2.308-0.923
		c0.176-1.298-0.01-3.418,2.459-3.366c3.001,0.064,6.005,0.025,9.008,0.007c0.701-0.004,1.445,0.028,2.091-0.188
		c0.874-0.293,1.063-1.187,0.997-1.976c-0.075-0.871-0.893-0.681-1.471-0.686c-2.649-0.022-5.3-0.046-7.948-0.005
		c-2.073,0.032-2.741-1.07-2.262-2.876c0.542-2.042,1.195-4.07,1.99-6.026c0.681-1.676,1.996-2.608,3.938-2.542
		C250.836,241.773,252.869,241.72,254.9,241.72z"/>
	<path fill-rule="evenodd" clip-rule="evenodd" fill="#F3A022" d="M139.893,241.733c1.762,0,3.527-0.071,5.285,0.019
		c2.018,0.102,2.896,1.229,2.282,3.195c-1.285,4.114-2.573,8.23-4.026,12.287c-0.711,1.983-2.354,3.061-4.504,3.091
		c-3.347,0.048-6.696,0.074-10.042-0.005c-2.502-0.059-3.295-1.173-2.545-3.648c1.174-3.873,2.451-7.716,3.757-11.546
		c0.759-2.228,2.32-3.458,4.773-3.408c1.673,0.034,3.347,0.006,5.021,0.006C139.893,241.727,139.893,241.73,139.893,241.733z"/>
	<path fill-rule="evenodd" clip-rule="evenodd" fill="#F4A022" d="M267.996,260.337c-1.768,0.001-3.535,0.036-5.301-0.008
		c-2.082-0.051-2.951-1.255-2.381-3.159c1.266-4.226,2.627-8.427,4.105-12.582c0.68-1.912,2.26-2.866,4.347-2.861
		c3.357,0.007,6.716-0.047,10.072,0.016c2.414,0.046,3.287,1.077,2.621,3.378c-1.179,4.067-2.475,8.107-3.913,12.088
		c-0.709,1.963-2.342,3.069-4.514,3.119C271.354,260.366,269.675,260.336,267.996,260.337z"/>
	<path fill-rule="evenodd" clip-rule="evenodd" fill="#F3A022" d="M342.439,260.036c-3.823,1.172-6.269-0.06-7.565-3.635
		c-0.267-0.734-0.679-1.465-1.193-2.048c-1.047-1.187-2.705-0.818-3.292,0.724c-0.47,1.234-0.814,2.517-1.191,3.785
		c-0.241,0.809-0.573,1.361-1.567,1.502c-2.732,0.388-3.17-0.055-2.336-2.657c0.35-1.091,0.728-2.173,1.085-3.261
		c1.66-5.067,1.659-5.067,7.111-5.067c1.766,0,3.533-0.055,5.296,0.017c1.148,0.047,1.745-0.352,2.109-1.478
		c0.418-1.294,0.407-1.964-1.246-1.913c-2.734,0.085-5.474,0.072-8.208-0.01c-0.702-0.021-2.164,0.627-1.939-0.824
		c0.189-1.224,0.045-3.288,1.862-3.368c4.492-0.199,9-0.073,13.502-0.041c1.086,0.008,1.747,0.813,1.564,1.737
		c-0.615,3.098-1.426,6.118-3.177,8.867c-0.847,1.33-3.646,0.204-3.155,2.548c0.315,1.501,1.367,2.845,2.076,4.267
		C342.286,259.404,342.327,259.664,342.439,260.036z"/>
	<path fill-rule="evenodd" clip-rule="evenodd" fill="#F3A022" d="M202.641,241.726c2.029,0,4.059,0.025,6.087-0.009
		c1.364-0.023,2.461,0.516,2.209,1.931c-0.524,2.936-1.288,5.842-2.979,8.381c-0.236,0.354-0.612,0.786-0.982,0.853
		c-3.632,0.65-2.199,2.515-1.248,4.488c0.405,0.839,2.046,2.234,0.557,2.745c-1.481,0.507-3.706,1.113-5.096-0.728
		c-0.792-1.047-1.34-2.276-2.011-3.416c-0.653-1.109-1.049-2.488-2.839-2.245c-1.605,0.218-1.358,1.626-1.804,2.582
		c-0.258,0.555-0.48,1.159-0.556,1.761c-0.262,2.082-1.565,2.419-3.375,2.311c-1.246-0.075-1.543-0.477-1.16-1.619
		c0.896-2.674,1.791-5.351,2.595-8.054c0.357-1.199,1.108-1.367,2.189-1.348c2.999,0.053,6.004-0.092,8.997,0.058
		c1.928,0.096,2.326-1.178,2.351-2.456c0.032-1.577-1.422-0.863-2.207-0.896c-2.378-0.101-4.765,0.021-7.144-0.069
		c-0.791-0.03-2.348,0.624-2.141-0.934c0.168-1.265-0.035-3.277,2.203-3.325C198.405,241.691,200.523,241.727,202.641,241.726z"/>
	<path fill-rule="evenodd" clip-rule="evenodd" fill="#F3A022" d="M357.151,248.874c-0.783,4.259-0.783,4.259-4.778,4.308
		c-0.441,0.005-0.883-0.005-1.322,0.017c-1.359,0.069-1.487,1.23-1.514,2.101c-0.033,1.083,1.03,0.679,1.635,0.692
		c2.292,0.05,4.588-0.042,6.877,0.055c0.716,0.03,2.223-0.629,2.007,0.741c-0.197,1.26,0.033,3.417-2.04,3.495
		c-4.315,0.161-8.641,0.052-12.962,0.055c-1.226,0-1.219-0.729-0.937-1.599c1.715-5.279,3.47-10.545,5.127-15.842
		c0.414-1.323,1.342-1.173,2.296-1.175c3.616-0.006,7.234-0.066,10.846,0.05c0.784,0.025,2.558-0.859,2.245,1.042
		c-0.221,1.334-0.139,3.363-2.598,3.238c-2.375-0.12-4.762-0.027-7.143-0.025c-0.529,0-1.063-0.03-1.587,0.026
		c-1.315,0.141-1.456,1.31-1.463,2.176c-0.008,1.038,1.052,0.583,1.647,0.621C354.69,248.927,355.9,248.874,357.151,248.874z"/>
	<path fill-rule="evenodd" clip-rule="evenodd" fill="#F3A022" d="M229.36,241.729c-0.832,4.298-0.832,4.298-4.621,4.298
		c-2.117,0-4.237,0.08-6.347-0.026c-1.463-0.073-1.891,0.825-1.985,1.909c-0.137,1.58,1.182,0.757,1.869,0.949
		c0.327,0.091,0.722-0.061,1.05,0.031c0.784,0.221,2.365-0.635,2.17,0.883c-0.169,1.315,0.043,3.439-2.382,3.408
		c-1.058-0.014-2.12,0.058-3.173-0.011c-1.509-0.099-1.842,0.987-1.865,2.028c-0.028,1.261,1.125,0.776,1.788,0.794
		c2.203,0.06,4.41-0.031,6.612,0.05c0.759,0.028,2.244-0.513,2.105,0.707c-0.146,1.279-0.056,3.433-2.015,3.521
		c-4.399,0.199-8.814,0.062-13.223,0.068c-1.146,0.001-1.021-0.662-0.777-1.417c1.742-5.362,3.486-10.724,5.214-16.09
		c0.255-0.791,0.754-1.11,1.569-1.107C220.002,241.736,224.656,241.729,229.36,241.729z"/>
	<path fill-rule="evenodd" clip-rule="evenodd" fill="#F3A022" d="M82.126,262.734c1.459,0.344,3.305-0.699,4.29,0.673
		c1.526,2.126,3.669,4.391,3.658,6.877c-0.011,2.484-2.022,4.873-3.7,6.843c-1.332,1.563-3.674,0.485-5.557,0.602
		c-1.164,0.072-2.679,0.608-3.47-0.599c-1.443-2.201-3.39-4.475-3.684-6.893c-0.214-1.766,2.011-3.755,2.926-5.748
		C77.858,261.723,80.267,263.216,82.126,262.734z"/>
	<path fill-rule="evenodd" clip-rule="evenodd" fill="#1679B7" d="M53.425,277.82c-1.483-0.391-3.416,0.769-4.473-0.739
		c-1.501-2.143-3.601-4.576-3.584-6.872c0.017-2.304,2.149-4.709,3.675-6.842c0.907-1.269,2.656-0.532,4.009-0.532
		c1.71,0,3.887-0.76,5.026,0.681c1.607,2.033,3.607,4.555,3.585,6.851c-0.022,2.308-2.104,4.755-3.69,6.83
		C56.935,278.555,54.962,277.476,53.425,277.82z"/>
	<path fill-rule="evenodd" clip-rule="evenodd" fill="#1579B7" d="M95.913,269.47c-1.449-0.322-3.302,0.691-4.266-0.608
		c-1.558-2.1-3.529-4.458-3.729-6.843c-0.203-2.415,1.951-4.854,3.632-6.803c1.402-1.626,3.82-0.523,5.776-0.63
		c1.135-0.063,2.617-0.671,3.421,0.622c1.343,2.157,3.368,4.384,3.493,6.67c0.132,2.434-2.076,4.75-3.613,6.857
		C99.502,270.274,97.471,269.063,95.913,269.47z"/>
	<path fill-rule="evenodd" clip-rule="evenodd" fill="#1579B7" d="M67.56,269.47c-1.455-0.326-3.317,0.703-4.286-0.607
		c-1.552-2.102-3.503-4.462-3.711-6.849c-0.21-2.423,1.955-4.839,3.601-6.824c1.325-1.599,3.654-0.481,5.525-0.608
		c1.167-0.079,2.742-0.651,3.502,0.442c1.498,2.152,3.652,4.537,3.667,6.838c0.016,2.301-2.048,4.764-3.582,6.879
		C71.159,270.28,69.12,269.062,67.56,269.47z"/>
	<path fill-rule="evenodd" clip-rule="evenodd" fill="#1579B7" d="M67.893,271.065c1.45,0.319,3.311-0.696,4.275,0.619
		c1.549,2.11,3.501,4.478,3.703,6.87c0.205,2.422-1.981,4.836-3.636,6.806c-1.394,1.659-3.822,0.485-5.78,0.641
		c-1.075,0.086-2.522,0.596-3.233-0.482c-1.447-2.192-3.367-4.471-3.666-6.889c-0.219-1.772,1.977-3.766,2.843-5.77
		C63.622,270.032,66.033,271.535,67.893,271.065z"/>
	<path fill-rule="evenodd" clip-rule="evenodd" fill="#F4A022" d="M177.982,260.336c-1.765-0.003-3.533,0.047-5.296-0.016
		c-2.051-0.073-2.958-1.263-2.372-3.177c1.47-4.807,3.051-9.582,4.672-14.34c0.668-1.96,2.472-1.161,3.637-0.929
		c1.361,0.271,0.35,1.446,0.131,2.153c-1.016,3.285-2.021,6.579-3.221,9.799c-0.706,1.896-0.096,2.203,1.682,2.219
		c6.448,0.058,6.453,0.113,8.451-5.89c0.752-2.26,1.442-4.541,2.214-6.794c0.488-1.427,2.871-2.291,4.08-1.555
		c0.634,0.387,0.371,0.887,0.212,1.373c-1.528,4.696-2.977,9.42-4.633,14.07c-0.701,1.971-2.35,3.049-4.523,3.084
		C181.338,260.361,179.66,260.34,177.982,260.336z"/>
	<path fill-rule="evenodd" clip-rule="evenodd" fill="#F4A022" d="M296.248,260.166c4.482-5.993,8.741-11.598,12.888-17.286
		c1.223-1.679,2.839-1.218,4.313-1.071c1.555,0.154,0.935,1.702,1.045,2.607c0.552,4.545,0.998,9.104,1.386,13.666
		c0.067,0.792,0.698,2.239-0.937,2.192c-1.199-0.034-2.95,1.002-3.479-1.202c-0.097-0.403-0.263-0.876-0.559-1.127
		c-0.653-0.558-8.297-0.214-8.697,0.477C300.867,260.739,298.831,260.484,296.248,260.166z"/>
	<path fill-rule="evenodd" clip-rule="evenodd" fill="#F4A023" d="M115.56,254.52c2.875-3.801,5.307-7.015,7.735-10.23
		c2.069-2.739,2.067-2.741,5.718-2.406c0.377,0.848-0.387,1.257-0.758,1.757c-3.732,5.024-7.577,9.967-11.206,15.064
		c-1.136,1.596-2.473,1.695-4.101,1.659c-1.007-0.022-1.411-0.462-1.505-1.411c-0.52-5.26-1.05-10.518-1.604-15.774
		c-0.132-1.256,0.546-1.558,1.576-1.449c1.179,0.125,2.8-0.643,2.998,1.529C114.732,246.763,115.123,250.262,115.56,254.52z"/>
	<path fill-rule="evenodd" clip-rule="evenodd" fill="#F4A123" d="M286.123,260.34c-1.959-0.279-5.292,1.119-6.547-0.559
		c-1.079-1.445,1.048-4.327,1.711-6.586c0.965-3.292,2.076-6.544,3.163-9.8c0.482-1.44,2.854-2.35,4.026-1.58
		c0.856,0.563,0.268,1.269,0.077,1.875c-1.105,3.527-2.175,7.068-3.417,10.548c-0.536,1.504-0.155,1.84,1.305,1.79
		c2.288-0.078,4.584-0.089,6.87,0.018c0.751,0.035,2.342-0.701,2.065,0.933c-0.213,1.257,0.003,3.276-2.192,3.345
		C290.983,260.394,288.779,260.34,286.123,260.34z"/>
	<path fill-rule="evenodd" clip-rule="evenodd" fill="#F3A023" d="M165.183,241.719c1.767,0.001,3.538-0.067,5.298,0.034
		c0.745,0.043,2.191-0.586,2.086,0.716c-0.1,1.24-0.124,2.912-1.792,3.518c-0.159,0.058-0.362,0.074-0.524,0.031
		c-4.25-1.109-5.167,1.7-5.981,4.895c-0.673,2.645-1.793,5.176-2.469,7.82c-0.58,2.271-2.297,1.765-3.589,1.514
		c-1.824-0.354-0.539-1.713-0.308-2.503c0.967-3.301,2.041-6.574,3.176-9.822c0.531-1.52,0.178-2.117-1.438-1.896
		c-0.26,0.036-0.567,0.088-0.788-0.011c-0.796-0.358-2.592,0.854-2.307-1.003c0.198-1.29,0.07-3.42,2.541-3.311
		C161.116,241.791,163.151,241.718,165.183,241.719z"/>
	<path fill-rule="evenodd" clip-rule="evenodd" fill="#F4A123" d="M152.85,241.753c2.068-0.338,2.196,0.516,1.608,2.227
		c-1.634,4.754-3.102,9.565-4.687,14.337c-0.28,0.843-0.298,1.874-1.675,2.055c-2.689,0.354-3.192-0.108-2.368-2.677
		c1.509-4.705,3.101-9.383,4.548-14.106C150.709,242.175,151.332,241.408,152.85,241.753z"/>
	<path fill-rule="evenodd" clip-rule="evenodd" fill="#F4A123" d="M325.884,241.752c1.933-0.372,2.187,0.409,1.593,2.142
		c-1.681,4.909-3.224,9.865-4.854,14.792c-0.475,1.436-2.791,2.288-4.056,1.583c-0.826-0.46-0.35-1.048-0.176-1.586
		c1.649-5.106,3.354-10.195,4.939-15.321C323.758,241.98,324.519,241.514,325.884,241.752z"/>
	<path fill-rule="evenodd" clip-rule="evenodd" fill="#FFFFFF" d="M474.983,278.515c4.683,0,9.367,0.063,14.048-0.033
		c1.704-0.034,1.859,0.458,1.365,1.954c-3.485,10.56-6.924,21.136-10.299,31.731c-0.445,1.399-1.017,1.963-2.56,1.95
		c-9.188-0.075-18.377-0.058-27.565-0.016c-1.53,0.008-2.302-0.069-1.659-2.008c3.525-10.639,6.949-21.312,10.351-31.99
		c0.44-1.384,1.236-1.635,2.537-1.615C465.795,278.557,470.389,278.515,474.983,278.515z"/>
	<path fill-rule="evenodd" clip-rule="evenodd" fill="#F9F8F8" d="M289.208,289.859c2.562-0.001,5.124,0.046,7.684-0.017
		c1.655-0.041,2.462,0.129,1.755,2.202c-1.452,4.26-1.326,4.303-5.813,4.303c-4.505,0-9.01-0.046-13.513,0.024
		c-1.658,0.026-2.448-0.073-1.728-2.14c1.512-4.331,1.394-4.372,6.051-4.372C285.499,289.86,287.354,289.86,289.208,289.859z"/>
	<path fill-rule="evenodd" clip-rule="evenodd" fill="#F8F8F8" d="M339.658,276.651c0.48,4.493,0.854,8.305,1.314,12.106
		c0.143,1.181,0.003,1.818-1.409,1.789c-3.229-0.068-6.459-0.021-10.406-0.021C332.769,285.755,336.026,281.449,339.658,276.651z"/>
	<path fill-rule="evenodd" clip-rule="evenodd" fill="#FFFDFB" d="M138.554,246.025c4.343,0,4.343,0,3.04,4.013
		c-1.964,6.053-1.966,5.941-8.33,6.035c-2.381,0.036-2.465-0.78-1.715-2.568c0.441-1.053,0.732-2.17,1.09-3.258
		C134.026,246.025,134.025,246.025,138.554,246.025z"/>
	<path fill-rule="evenodd" clip-rule="evenodd" fill="#FFFDFB" d="M269.228,256.015c-4.337,0-4.337,0-2.99-4.224
		c1.851-5.799,1.854-5.679,7.958-5.823c2.508-0.06,2.871,0.707,1.95,2.787c-0.426,0.963-0.679,2.003-1.01,3.008
		C273.734,256.015,273.734,256.015,269.228,256.015z"/>
	<path fill-rule="evenodd" clip-rule="evenodd" fill="#FEF4E7" d="M310.16,247.907c1.373,5.689,1.152,5.985-4.029,5.367
		C307.22,251.261,308.527,249.547,310.16,247.907z"/>
</g>
</svg>
