<?xml version="1.0" encoding="utf-8"?>
<!-- Generator: Adobe Illustrator 16.0.0, SVG Export Plug-In . SVG Version: 6.00 Build 0)  -->
<!DOCTYPE svg PUBLIC "-//W3C//DTD SVG 1.1//EN" "http://www.w3.org/Graphics/SVG/1.1/DTD/svg11.dtd">
<svg version="1.1" id="Layer_1" xmlns="http://www.w3.org/2000/svg" xmlns:xlink="http://www.w3.org/1999/xlink" x="0px" y="0px"
	 width="226px" height="226px" viewBox="0 0 226 226" enable-background="new 0 0 226 226" xml:space="preserve">
<g>
	<g>
		<path fill-rule="evenodd" clip-rule="evenodd" fill="#251E20" d="M169.502,227.009c-56.497,0-112.995,0-169.493,0
			c0-75.667,0-151.333,0-227c56.498,0,112.996,0,169.493,0c1.619,1.462,2.173,3.352,2.057,5.444
			c-0.354,6.385,1.374,12.642,1.112,19.021c-0.061,1.496,0.027,3.025,1.003,4.357c1.951,1.75,4.395,1.306,6.685,1.317
			c13.065,0.063,26.13,0.001,39.195,0.044c2.669,0.008,5.43-0.229,7.455,2.1c0,11.098,0,22.195,0,33.293
			c-2.024,2.332-4.787,2.093-7.456,2.102c-12.902,0.042-25.805-0.008-38.706,0.034c-2.317,0.008-4.706-0.283-7.608,1.401
			c-1.121,8.133-0.737,16.666-0.219,24.671c2.59,2.357,5.035,1.917,7.324,1.929c13.07,0.064,26.14,0.001,39.209,0.044
			c2.669,0.009,5.432-0.229,7.456,2.103c0,10.762,0,21.522,0,32.284c-1.88,2.164-4.435,2.09-6.964,2.098
			c-13.083,0.042-26.166-0.011-39.249,0.034c-2.317,0.008-4.711-0.291-7.641,1.48c-1.065,8.113-0.438,16.666-0.321,24.624
			c2.727,2.368,5.169,1.896,7.459,1.907c13.25,0.064,26.501,0.002,39.752,0.044c2.529,0.008,5.084-0.066,6.964,2.098
			c0,11.098,0,22.195,0,33.293c-1.737,1.973-4.065,2.099-6.449,2.084c-14.387-0.089-28.777,0.304-43.161-0.241
			c-1.729-0.065-3.328,0.018-5.337,1.57c-0.97,6.274-0.234,13.116-0.461,19.907C171.506,221.867,171.973,224.824,169.502,227.009z"
			/>
		<path fill-rule="evenodd" clip-rule="evenodd" fill="#28A9E2" d="M227.009,32.293c-18.706,0-37.412,0-57.507,0
			c0-10.976,0-21.63,0-32.285c19.169,0,38.338,0,57.507,0C227.009,10.771,227.009,21.532,227.009,32.293z"/>
		<path fill-rule="evenodd" clip-rule="evenodd" fill="#F6931F" d="M227.009,162.44c-18.736,0-37.474,0-56.567,0
			c0-10.904,0-21.201,0-32.285c19.094,0,37.83,0,56.567,0C227.009,140.917,227.009,151.678,227.009,162.44z"/>
		<path fill-rule="evenodd" clip-rule="evenodd" fill="#8BC53F" d="M227.009,97.871c-18.612,0-37.224,0-56.312,0
			c0-10.937,0-21.368,0-32.284c18.836,0,37.574,0,56.312,0C227.009,76.349,227.009,87.109,227.009,97.871z"/>
		<path fill-rule="evenodd" clip-rule="evenodd" fill="#BF2738" d="M169.502,227.009c0-10.376,0-20.751,0-31.275
			c19.745,0,38.626,0,57.507,0c0,10.425,0,20.851,0,31.275C207.84,227.009,188.671,227.009,169.502,227.009z"/>
		<path fill-rule="evenodd" clip-rule="evenodd" fill="#FBFBFB" d="M59.583,170.632c0-12.088,0-23.66,0-35.232
			c-0.278-0.059-0.557-0.116-0.835-0.175c-2.838,11.688-5.676,23.379-8.503,35.023c-2.273,1.047-4.405,0.669-7.084,0.321
			c-2.793-11.638-5.615-23.395-8.436-35.15c-0.331,0.053-0.662,0.107-0.993,0.161c0,11.621,0,23.242,0,35.091
			c-2.844,0-5.324,0-8.191,0c0-15.73,0-31.428,0-47.524c4.294-0.792,8.691-0.611,13.256-0.077
			c2.444,9.525,4.834,18.844,7.795,30.386c3.042-11.507,5.531-20.923,8.064-30.506c4.572,0,8.862,0,13.427,0
			c0,15.949,0,31.67,0,47.683C65.256,170.632,62.645,170.632,59.583,170.632z"/>
		<path fill-rule="evenodd" clip-rule="evenodd" fill="#FAF9FA" d="M59.469,73.521c0.337-5.415-0.536-10.663,1.055-15.761
			c1.942-6.223,6.171-9.528,12.666-9.45c6.504,0.079,11.105,3.46,12.327,9.793c1.986,10.294,1.8,20.801,0.043,31.084
			c-1.063,6.221-5.586,9.773-12.222,9.886c-6.558,0.111-10.761-3.046-12.744-9.268C58.867,84.382,59.861,78.793,59.469,73.521z"/>
		<path fill-rule="evenodd" clip-rule="evenodd" fill="#FAFAFA" d="M34.138,80.187c0,6.062,0,11.553,0,17.103
			c-2.936,0.891-5.525,0.689-8.468,0.163c0-15.769,0-31.469,0-48.153c6.023,0.3,12.213,0.019,18.169,1.064
			c6.744,1.183,9.932,7.417,9.396,16.178c-0.46,7.52-4.536,12.202-11.472,13.059C39.466,79.885,37.145,79.963,34.138,80.187z"/>
		<path fill-rule="evenodd" clip-rule="evenodd" fill="#F9F9F9" d="M109.715,122.992c0,3.037,0,5.676,0,8.34
			c-1.63,1.357-3.547,0.657-5.323,0.765c-1.792,0.107-3.594,0.023-5.832,0.023c0,12.969,0,25.471,0,38.377
			c-3.486,0-6.539,0-10.224,0c0-12.647,0-25.299,0-38.428c-4.055,0-7.505,0-10.973,0c-0.93-3.229-0.671-5.98-0.222-9.077
			C87.907,122.992,98.553,122.992,109.715,122.992z"/>
		<path fill-rule="evenodd" clip-rule="evenodd" fill="#FAF9F9" d="M137.481,97.61c-3.669,0-6.138,0-9.898,0
			c4.058-17.642-5.476-32.149-11.604-47.906c3.451,0,6.242,0,9.351,0c2.2,5.422,4.383,10.802,7.1,17.5
			c2.669-6.401,4.916-11.792,7.266-17.43c2.75,0,5.551,0,9.223,0C143.173,65.369,133.175,79.749,137.481,97.61z"/>
		<path fill-rule="evenodd" clip-rule="evenodd" fill="#FAF9F9" d="M127.385,122.949c0,12.929,0,25.457,0,38.538
			c6.705,0,12.993,0,19.301,0c0.895,3.303,0.668,6.051,0.167,9.111c-9.774,0-19.412,0-29.327,0c0-15.938,0-31.64,0-47.649
			C120.72,122.949,123.673,122.949,127.385,122.949z"/>
		<path fill-rule="evenodd" clip-rule="evenodd" fill="#FBFAFA" d="M121.573,88.437c0,3.53,0,6.149,0,9.092
			c-8.567,0-16.874,0-25.634,0c0-15.81,0-31.613,0-47.719c2.669,0,5.264,0,8.42,0c0,12.758,0,25.439,0,38.627
			C110.348,88.437,115.797,88.437,121.573,88.437z"/>
		<path fill-rule="evenodd" clip-rule="evenodd" fill="#0A0808" d="M128.985,125.855c0,10.989,0,21.978,0,32.966
			c-0.146,0.002-0.292,0.003-0.438,0.005c0-11.038,0-22.075,0-33.113C128.693,125.761,128.839,125.808,128.985,125.855z"/>
		<path fill-rule="evenodd" clip-rule="evenodd" fill="#222121" d="M76.853,87.518c-2.983,3.09-6.834,3.508-7.594-0.9
			c-1.581-9.175-1.285-18.578,0.035-27.359c3.258-1.915,5.512-2.12,7.559,0.803C76.853,68.985,76.853,78.166,76.853,87.518z"/>
		<path fill-rule="evenodd" clip-rule="evenodd" fill="#262626" d="M34.497,71.465c0-4.4,0-8.663,0-13.235
			c3.162-0.493,6.405-1.136,8.557,1.877c1.849,2.589,1.886,5.807,0.439,8.583C41.611,72.295,38.135,71.901,34.497,71.465z"/>
	</g>
</g>
</svg>
